<?xml version="1.0" encoding="UTF-8"?>
<svg xmlns="http://www.w3.org/2000/svg" width="800" height="600" viewBox="0 0 800 600">
  <!-- The original 1989 Lynx has a wide charcoal shell and mirrored action buttons for either screen orientation. -->
  <defs>
    <linearGradient id="shell" x2="0.2" y2="1"><stop stop-color="#666872"/><stop offset="0.5" stop-color="#494b55"/><stop offset="1" stop-color="#353740"/></linearGradient>
    <linearGradient id="panel" x2="0" y2="1"><stop stop-color="#565862"/><stop offset="1" stop-color="#40424b"/></linearGradient>
    <linearGradient id="button" x2="0.6" y2="1"><stop stop-color="#383b43"/><stop offset="0.45" stop-color="#13151b"/><stop offset="1" stop-color="#07090d"/></linearGradient>
    <linearGradient id="glass" x2="0.7" y2="1"><stop stop-color="#3a555b"/><stop offset="1" stop-color="#18282f"/></linearGradient>
    <g id="action"><circle r="20" fill="#24262e" stroke="#747680" stroke-width="1.5"/><circle r="17" fill="url(#button)" stroke="#111219" stroke-width="2"/><path d="M-12 -9Q-5 -16 4 -14" fill="none" stroke="#7c8089" stroke-width="2" stroke-linecap="round"/></g>
  </defs>
  <path d="M100 172Q72 172 55 207Q18 291 40 393Q49 445 91 451L697 451Q738 447 751 403Q778 304 747 215Q730 172 701 172Q406 183 100 172Z" fill="#252730" stroke="#25262e" stroke-width="4"/>
  <path d="M100 159Q72 159 55 194Q18 278 40 380Q49 432 91 438Q402 429 697 438Q738 434 751 390Q778 291 747 202Q730 159 701 159Q406 170 100 159Z" fill="url(#shell)" stroke="#292c34" stroke-width="3"/>
  <path d="M65 189Q79 162 104 164Q410 175 697 164Q722 164 737 194" fill="none" stroke="#8c8e95" stroke-width="2"/>
  <path d="M209 168L204 429M645 167L656 431" fill="none" stroke="#30323a" stroke-width="2"/>
  <path d="M253 187H602L614 411H247Z" fill="url(#panel)" stroke="#363840" stroke-width="2"/>
  <!-- The black display surround carries the amber wordmark rather than a gold trim. -->
  <path d="M298 199H558L563 398H294Z" fill="#0b0d12" stroke="#777983" stroke-width="2"/>
  <text x="427" y="224" text-anchor="middle" fill="#d99748" font-family="sans-serif" font-size="25" font-weight="bold" font-style="italic" letter-spacing="7">LYNX</text>
  <rect x="310" y="234" width="234" height="143" fill="#111a1d" stroke="#4f555b" stroke-width="3"/>
  <rect x="315" y="240" width="224" height="131" fill="url(#glass)"/>
  <path d="M315 335L362 284L401 318L468 264L539 326V371H315Z" fill="#32677c"/>
  <path d="M315 350L372 325L418 349L465 312L539 349V371H315Z" fill="#64a49b"/>
  <circle cx="498" cy="266" r="10" fill="#e8bf75"/>
  <path d="M318 243H450L318 309Z" fill="#fff" opacity="0.08"/>
  <g transform="translate(408 385) scale(0.38)"><path d="M0 -12V12M-5 -12V-3Q-5 8 -18 12M5 -12V-3Q5 8 18 12" fill="none" stroke="#c7c9cb" stroke-width="3"/></g>
  <text x="419" y="391" fill="#c7c9cb" font-family="sans-serif" font-size="11">ATARI</text>
  <circle cx="145" cy="301" r="59" fill="#484a54" stroke="#3c3f48" stroke-width="2"/>
  <circle cx="145" cy="301" r="44" fill="#42444e" stroke="#83858c" stroke-width="1.5"/>
  <path d="M136 269Q134 269 134 273V290H117Q113 290 113 294V308Q113 312 117 312H134V330Q134 334 138 334H152Q156 334 156 330V312H174Q178 312 178 308V294Q178 290 174 290H156V273Q156 269 152 269Z" fill="url(#button)" stroke="#15171e" stroke-width="2"/>
  <circle cx="145" cy="301" r="4.5" fill="#85868a"/>
  <path d="M136 274V292H117" fill="none" stroke="#757983" stroke-width="1.5"/>
  <rect x="247" y="265" width="40" height="69" rx="9" fill="#353740" stroke="#6b6e77" stroke-width="2"/>
  <g fill="url(#button)" stroke="#24262c" stroke-width="2"><rect x="253" y="275" width="27" height="10" rx="5"/><rect x="253" y="314" width="27" height="10" rx="5"/></g>
  <g font-family="sans-serif" font-size="8" fill="#cf886f"><text x="223" y="284">ON</text><text x="218" y="323">OFF</text></g>
  <use href="#action" x="675" y="202"/><use href="#action" x="720" y="199"/>
  <use href="#action" x="685" y="399"/><use href="#action" x="730" y="407"/>
  <g font-family="sans-serif" font-size="9" fill="#cf886f"><text x="659" y="179">B</text><text x="706" y="177">A</text><text x="671" y="429">B</text><text x="724" y="436">A</text></g>
  <g fill="url(#button)" stroke="#292b32" stroke-width="2"><rect x="612" y="253" width="28" height="10" rx="5"/><rect x="614" y="292" width="28" height="10" rx="5"/><rect x="616" y="331" width="28" height="10" rx="5"/></g>
  <g font-family="sans-serif" font-size="6.5" fill="#cf886f"><text x="607" y="248">OPTION 1</text><text x="609" y="282">RESTART</text><text x="615" y="322">FLIP</text><text x="612" y="354">OPTION 2</text></g>
  <!-- Recessed perforations distinguish the right-hand speaker from decorative edge vents. -->
  <circle cx="663" cy="242" r="1.6" fill="#20232c"/><path d="M662 244h2" stroke="#777983" stroke-width="0.6"/>
  <circle cx="671" cy="242" r="1.6" fill="#20232c"/><path d="M670 244h2" stroke="#777983" stroke-width="0.6"/>
  <circle cx="679" cy="242" r="1.6" fill="#20232c"/><path d="M678 244h2" stroke="#777983" stroke-width="0.6"/>
  <circle cx="687" cy="242" r="1.6" fill="#20232c"/><path d="M686 244h2" stroke="#777983" stroke-width="0.6"/>
  <circle cx="695" cy="242" r="1.6" fill="#20232c"/><path d="M694 244h2" stroke="#777983" stroke-width="0.6"/>
  <circle cx="703" cy="242" r="1.6" fill="#20232c"/><path d="M702 244h2" stroke="#777983" stroke-width="0.6"/>
  <circle cx="711" cy="242" r="1.6" fill="#20232c"/><path d="M710 244h2" stroke="#777983" stroke-width="0.6"/>
  <circle cx="719" cy="242" r="1.6" fill="#20232c"/><path d="M718 244h2" stroke="#777983" stroke-width="0.6"/>
  <circle cx="727" cy="242" r="1.6" fill="#20232c"/><path d="M726 244h2" stroke="#777983" stroke-width="0.6"/>
  <circle cx="663" cy="253" r="1.6" fill="#20232c"/><path d="M662 255h2" stroke="#777983" stroke-width="0.6"/>
  <circle cx="671" cy="253" r="1.6" fill="#20232c"/><path d="M670 255h2" stroke="#777983" stroke-width="0.6"/>
  <circle cx="679" cy="253" r="1.6" fill="#20232c"/><path d="M678 255h2" stroke="#777983" stroke-width="0.6"/>
  <circle cx="687" cy="253" r="1.6" fill="#20232c"/><path d="M686 255h2" stroke="#777983" stroke-width="0.6"/>
  <circle cx="695" cy="253" r="1.6" fill="#20232c"/><path d="M694 255h2" stroke="#777983" stroke-width="0.6"/>
  <circle cx="703" cy="253" r="1.6" fill="#20232c"/><path d="M702 255h2" stroke="#777983" stroke-width="0.6"/>
  <circle cx="711" cy="253" r="1.6" fill="#20232c"/><path d="M710 255h2" stroke="#777983" stroke-width="0.6"/>
  <circle cx="719" cy="253" r="1.6" fill="#20232c"/><path d="M718 255h2" stroke="#777983" stroke-width="0.6"/>
  <circle cx="727" cy="253" r="1.6" fill="#20232c"/><path d="M726 255h2" stroke="#777983" stroke-width="0.6"/>
  <circle cx="663" cy="264" r="1.6" fill="#20232c"/><path d="M662 266h2" stroke="#777983" stroke-width="0.6"/>
  <circle cx="671" cy="264" r="1.6" fill="#20232c"/><path d="M670 266h2" stroke="#777983" stroke-width="0.6"/>
  <circle cx="679" cy="264" r="1.6" fill="#20232c"/><path d="M678 266h2" stroke="#777983" stroke-width="0.6"/>
  <circle cx="687" cy="264" r="1.6" fill="#20232c"/><path d="M686 266h2" stroke="#777983" stroke-width="0.6"/>
  <circle cx="695" cy="264" r="1.6" fill="#20232c"/><path d="M694 266h2" stroke="#777983" stroke-width="0.6"/>
  <circle cx="703" cy="264" r="1.6" fill="#20232c"/><path d="M702 266h2" stroke="#777983" stroke-width="0.6"/>
  <circle cx="711" cy="264" r="1.6" fill="#20232c"/><path d="M710 266h2" stroke="#777983" stroke-width="0.6"/>
  <circle cx="719" cy="264" r="1.6" fill="#20232c"/><path d="M718 266h2" stroke="#777983" stroke-width="0.6"/>
  <circle cx="727" cy="264" r="1.6" fill="#20232c"/><path d="M726 266h2" stroke="#777983" stroke-width="0.6"/>
  <circle cx="663" cy="275" r="1.6" fill="#20232c"/><path d="M662 277h2" stroke="#777983" stroke-width="0.6"/>
  <circle cx="671" cy="275" r="1.6" fill="#20232c"/><path d="M670 277h2" stroke="#777983" stroke-width="0.6"/>
  <circle cx="679" cy="275" r="1.6" fill="#20232c"/><path d="M678 277h2" stroke="#777983" stroke-width="0.6"/>
  <circle cx="687" cy="275" r="1.6" fill="#20232c"/><path d="M686 277h2" stroke="#777983" stroke-width="0.6"/>
  <circle cx="695" cy="275" r="1.6" fill="#20232c"/><path d="M694 277h2" stroke="#777983" stroke-width="0.6"/>
  <circle cx="703" cy="275" r="1.6" fill="#20232c"/><path d="M702 277h2" stroke="#777983" stroke-width="0.6"/>
  <circle cx="711" cy="275" r="1.6" fill="#20232c"/><path d="M710 277h2" stroke="#777983" stroke-width="0.6"/>
  <circle cx="719" cy="275" r="1.6" fill="#20232c"/><path d="M718 277h2" stroke="#777983" stroke-width="0.6"/>
  <circle cx="727" cy="275" r="1.6" fill="#20232c"/><path d="M726 277h2" stroke="#777983" stroke-width="0.6"/>
  <circle cx="663" cy="286" r="1.6" fill="#20232c"/><path d="M662 288h2" stroke="#777983" stroke-width="0.6"/>
  <circle cx="671" cy="286" r="1.6" fill="#20232c"/><path d="M670 288h2" stroke="#777983" stroke-width="0.6"/>
  <circle cx="679" cy="286" r="1.6" fill="#20232c"/><path d="M678 288h2" stroke="#777983" stroke-width="0.6"/>
  <circle cx="687" cy="286" r="1.6" fill="#20232c"/><path d="M686 288h2" stroke="#777983" stroke-width="0.6"/>
  <circle cx="695" cy="286" r="1.6" fill="#20232c"/><path d="M694 288h2" stroke="#777983" stroke-width="0.6"/>
  <circle cx="703" cy="286" r="1.6" fill="#20232c"/><path d="M702 288h2" stroke="#777983" stroke-width="0.6"/>
  <circle cx="711" cy="286" r="1.6" fill="#20232c"/><path d="M710 288h2" stroke="#777983" stroke-width="0.6"/>
  <circle cx="719" cy="286" r="1.6" fill="#20232c"/><path d="M718 288h2" stroke="#777983" stroke-width="0.6"/>
  <circle cx="727" cy="286" r="1.6" fill="#20232c"/><path d="M726 288h2" stroke="#777983" stroke-width="0.6"/>
  <circle cx="663" cy="297" r="1.6" fill="#20232c"/><path d="M662 299h2" stroke="#777983" stroke-width="0.6"/>
  <circle cx="671" cy="297" r="1.6" fill="#20232c"/><path d="M670 299h2" stroke="#777983" stroke-width="0.6"/>
  <circle cx="679" cy="297" r="1.6" fill="#20232c"/><path d="M678 299h2" stroke="#777983" stroke-width="0.6"/>
  <circle cx="687" cy="297" r="1.6" fill="#20232c"/><path d="M686 299h2" stroke="#777983" stroke-width="0.6"/>
  <circle cx="695" cy="297" r="1.6" fill="#20232c"/><path d="M694 299h2" stroke="#777983" stroke-width="0.6"/>
  <circle cx="703" cy="297" r="1.6" fill="#20232c"/><path d="M702 299h2" stroke="#777983" stroke-width="0.6"/>
  <circle cx="711" cy="297" r="1.6" fill="#20232c"/><path d="M710 299h2" stroke="#777983" stroke-width="0.6"/>
  <circle cx="719" cy="297" r="1.6" fill="#20232c"/><path d="M718 299h2" stroke="#777983" stroke-width="0.6"/>
  <circle cx="727" cy="297" r="1.6" fill="#20232c"/><path d="M726 299h2" stroke="#777983" stroke-width="0.6"/>
  <circle cx="663" cy="308" r="1.6" fill="#20232c"/><path d="M662 310h2" stroke="#777983" stroke-width="0.6"/>
  <circle cx="671" cy="308" r="1.6" fill="#20232c"/><path d="M670 310h2" stroke="#777983" stroke-width="0.6"/>
  <circle cx="679" cy="308" r="1.6" fill="#20232c"/><path d="M678 310h2" stroke="#777983" stroke-width="0.6"/>
  <circle cx="687" cy="308" r="1.6" fill="#20232c"/><path d="M686 310h2" stroke="#777983" stroke-width="0.6"/>
  <circle cx="695" cy="308" r="1.6" fill="#20232c"/><path d="M694 310h2" stroke="#777983" stroke-width="0.6"/>
  <circle cx="703" cy="308" r="1.6" fill="#20232c"/><path d="M702 310h2" stroke="#777983" stroke-width="0.6"/>
  <circle cx="711" cy="308" r="1.6" fill="#20232c"/><path d="M710 310h2" stroke="#777983" stroke-width="0.6"/>
  <circle cx="719" cy="308" r="1.6" fill="#20232c"/><path d="M718 310h2" stroke="#777983" stroke-width="0.6"/>
  <circle cx="727" cy="308" r="1.6" fill="#20232c"/><path d="M726 310h2" stroke="#777983" stroke-width="0.6"/>
  <circle cx="663" cy="319" r="1.6" fill="#20232c"/><path d="M662 321h2" stroke="#777983" stroke-width="0.6"/>
  <circle cx="671" cy="319" r="1.6" fill="#20232c"/><path d="M670 321h2" stroke="#777983" stroke-width="0.6"/>
  <circle cx="679" cy="319" r="1.6" fill="#20232c"/><path d="M678 321h2" stroke="#777983" stroke-width="0.6"/>
  <circle cx="687" cy="319" r="1.6" fill="#20232c"/><path d="M686 321h2" stroke="#777983" stroke-width="0.6"/>
  <circle cx="695" cy="319" r="1.6" fill="#20232c"/><path d="M694 321h2" stroke="#777983" stroke-width="0.6"/>
  <circle cx="703" cy="319" r="1.6" fill="#20232c"/><path d="M702 321h2" stroke="#777983" stroke-width="0.6"/>
  <circle cx="711" cy="319" r="1.6" fill="#20232c"/><path d="M710 321h2" stroke="#777983" stroke-width="0.6"/>
  <circle cx="719" cy="319" r="1.6" fill="#20232c"/><path d="M718 321h2" stroke="#777983" stroke-width="0.6"/>
  <circle cx="727" cy="319" r="1.6" fill="#20232c"/><path d="M726 321h2" stroke="#777983" stroke-width="0.6"/>
  <circle cx="663" cy="330" r="1.6" fill="#20232c"/><path d="M662 332h2" stroke="#777983" stroke-width="0.6"/>
  <circle cx="671" cy="330" r="1.6" fill="#20232c"/><path d="M670 332h2" stroke="#777983" stroke-width="0.6"/>
  <circle cx="679" cy="330" r="1.6" fill="#20232c"/><path d="M678 332h2" stroke="#777983" stroke-width="0.6"/>
  <circle cx="687" cy="330" r="1.6" fill="#20232c"/><path d="M686 332h2" stroke="#777983" stroke-width="0.6"/>
  <circle cx="695" cy="330" r="1.6" fill="#20232c"/><path d="M694 332h2" stroke="#777983" stroke-width="0.6"/>
  <circle cx="703" cy="330" r="1.6" fill="#20232c"/><path d="M702 332h2" stroke="#777983" stroke-width="0.6"/>
  <circle cx="711" cy="330" r="1.6" fill="#20232c"/><path d="M710 332h2" stroke="#777983" stroke-width="0.6"/>
  <circle cx="719" cy="330" r="1.6" fill="#20232c"/><path d="M718 332h2" stroke="#777983" stroke-width="0.6"/>
  <circle cx="727" cy="330" r="1.6" fill="#20232c"/><path d="M726 332h2" stroke="#777983" stroke-width="0.6"/>
  <circle cx="663" cy="341" r="1.6" fill="#20232c"/><path d="M662 343h2" stroke="#777983" stroke-width="0.6"/>
  <circle cx="671" cy="341" r="1.6" fill="#20232c"/><path d="M670 343h2" stroke="#777983" stroke-width="0.6"/>
  <circle cx="679" cy="341" r="1.6" fill="#20232c"/><path d="M678 343h2" stroke="#777983" stroke-width="0.6"/>
  <circle cx="687" cy="341" r="1.6" fill="#20232c"/><path d="M686 343h2" stroke="#777983" stroke-width="0.6"/>
  <circle cx="695" cy="341" r="1.6" fill="#20232c"/><path d="M694 343h2" stroke="#777983" stroke-width="0.6"/>
  <circle cx="703" cy="341" r="1.6" fill="#20232c"/><path d="M702 343h2" stroke="#777983" stroke-width="0.6"/>
  <circle cx="711" cy="341" r="1.6" fill="#20232c"/><path d="M710 343h2" stroke="#777983" stroke-width="0.6"/>
  <circle cx="719" cy="341" r="1.6" fill="#20232c"/><path d="M718 343h2" stroke="#777983" stroke-width="0.6"/>
  <circle cx="727" cy="341" r="1.6" fill="#20232c"/><path d="M726 343h2" stroke="#777983" stroke-width="0.6"/>
  <circle cx="663" cy="352" r="1.6" fill="#20232c"/><path d="M662 354h2" stroke="#777983" stroke-width="0.6"/>
  <circle cx="671" cy="352" r="1.6" fill="#20232c"/><path d="M670 354h2" stroke="#777983" stroke-width="0.6"/>
  <circle cx="679" cy="352" r="1.6" fill="#20232c"/><path d="M678 354h2" stroke="#777983" stroke-width="0.6"/>
  <circle cx="687" cy="352" r="1.6" fill="#20232c"/><path d="M686 354h2" stroke="#777983" stroke-width="0.6"/>
  <circle cx="695" cy="352" r="1.6" fill="#20232c"/><path d="M694 354h2" stroke="#777983" stroke-width="0.6"/>
  <circle cx="703" cy="352" r="1.6" fill="#20232c"/><path d="M702 354h2" stroke="#777983" stroke-width="0.6"/>
  <circle cx="711" cy="352" r="1.6" fill="#20232c"/><path d="M710 354h2" stroke="#777983" stroke-width="0.6"/>
  <circle cx="719" cy="352" r="1.6" fill="#20232c"/><path d="M718 354h2" stroke="#777983" stroke-width="0.6"/>
  <circle cx="727" cy="352" r="1.6" fill="#20232c"/><path d="M726 354h2" stroke="#777983" stroke-width="0.6"/>
  <circle cx="663" cy="363" r="1.6" fill="#20232c"/><path d="M662 365h2" stroke="#777983" stroke-width="0.6"/>
  <circle cx="671" cy="363" r="1.6" fill="#20232c"/><path d="M670 365h2" stroke="#777983" stroke-width="0.6"/>
  <circle cx="679" cy="363" r="1.6" fill="#20232c"/><path d="M678 365h2" stroke="#777983" stroke-width="0.6"/>
  <circle cx="687" cy="363" r="1.6" fill="#20232c"/><path d="M686 365h2" stroke="#777983" stroke-width="0.6"/>
  <circle cx="695" cy="363" r="1.6" fill="#20232c"/><path d="M694 365h2" stroke="#777983" stroke-width="0.6"/>
  <circle cx="703" cy="363" r="1.6" fill="#20232c"/><path d="M702 365h2" stroke="#777983" stroke-width="0.6"/>
  <circle cx="711" cy="363" r="1.6" fill="#20232c"/><path d="M710 365h2" stroke="#777983" stroke-width="0.6"/>
  <circle cx="719" cy="363" r="1.6" fill="#20232c"/><path d="M718 365h2" stroke="#777983" stroke-width="0.6"/>
  <circle cx="727" cy="363" r="1.6" fill="#20232c"/><path d="M726 365h2" stroke="#777983" stroke-width="0.6"/>
</svg>
