<?xml version="1.0" encoding="UTF-8"?>
<svg xmlns="http://www.w3.org/2000/svg" width="800" height="600" viewBox="0 0 800 600">
  <!-- This original illustration keeps its own material colors so hardware remains recognizable on every palette. -->
<defs>
<linearGradient id="dark" x1="0" y1="0" x2="0.8" y2="1"><stop stop-color="#4a5362"/><stop offset="0.38" stop-color="#262d3b"/><stop offset="1" stop-color="#10141d"/></linearGradient>
<linearGradient id="black" x1="0" y1="0" x2="0" y2="1"><stop stop-color="#414751"/><stop offset="0.42" stop-color="#151b25"/><stop offset="1" stop-color="#050b12"/></linearGradient>
<linearGradient id="rubber" x1="0" y1="0" x2="0" y2="1"><stop stop-color="#545b65"/><stop offset="0.45" stop-color="#303741"/><stop offset="1" stop-color="#111822"/></linearGradient>
<linearGradient id="silver" x1="0" y1="0" x2="0" y2="1"><stop stop-color="#f6f8fa"/><stop offset="0.42" stop-color="#bfc7d1"/><stop offset="0.5" stop-color="#8b95a4"/><stop offset="1" stop-color="#dbe2e9"/></linearGradient>
<linearGradient id="cream" x1="0" y1="0" x2="0.3" y2="1"><stop stop-color="#eee6d2"/><stop offset="0.5" stop-color="#cfc5ad"/><stop offset="1" stop-color="#a19b8c"/></linearGradient>
<linearGradient id="wood" x1="0" y1="0" x2="0" y2="1"><stop stop-color="#b8763e"/><stop offset="0.45" stop-color="#80552f"/><stop offset="1" stop-color="#55341f"/></linearGradient>
<linearGradient id="gold" x1="0" y1="0" x2="0.9" y2="1"><stop stop-color="#fff0a4"/><stop offset="0.35" stop-color="#ffc841"/><stop offset="0.7" stop-color="#d88a16"/><stop offset="1" stop-color="#ffe380"/></linearGradient>
<linearGradient id="glass" x1="0" y1="0" x2="0.7" y2="1"><stop stop-color="#324963"/><stop offset="0.5" stop-color="#0c1525"/><stop offset="1" stop-color="#03101d"/></linearGradient>
<linearGradient id="red" x1="0" y1="0" x2="0.8" y2="1"><stop stop-color="#ff665b"/><stop offset="0.55" stop-color="#d63136"/><stop offset="1" stop-color="#8f1628"/></linearGradient>
<linearGradient id="blue" x1="0" y1="0" x2="0.8" y2="1"><stop stop-color="#72c1ff"/><stop offset="0.55" stop-color="#258ad2"/><stop offset="1" stop-color="#176087"/></linearGradient>
<linearGradient id="purple" x1="0" y1="0" x2="0.8" y2="1"><stop stop-color="#b286ed"/><stop offset="0.55" stop-color="#7551ac"/><stop offset="1" stop-color="#452a6e"/></linearGradient>
</defs>
<ellipse cx="410" cy="525" rx="240" ry="18" fill="#162039" opacity="0.17"/><path d="M277 68H532l35 54v149l45 70v169H507l-7-417H277Z" fill="#155074" stroke="#101823" stroke-width="4" stroke-linecap="round" stroke-linejoin="round" /><path d="M247 68H505v70l-15 117 37 72v182H225V327l37-72-15-117Z" fill="url(#blue)" stroke="#161c27" stroke-width="4" stroke-linecap="round" stroke-linejoin="round" /><path d="M256 72H496v64H256Z" fill="#0e1725" stroke="#cfdae4" stroke-width="2" stroke-linecap="round" stroke-linejoin="round" /><rect x="266" y="81" width="220" height="42" rx="3" fill="#87e5e5" /><path d="M282 89l14 13-14 13M308 89l14 13-14 13M358 90l12 23 12-23M397 89h56v25h-56Z" fill="none" stroke="#152335" stroke-width="5" stroke-linecap="round" stroke-linejoin="round" /><path d="M274 150H477l-11 108H284Z" fill="#162130" stroke="#0a0f17" stroke-width="4" stroke-linecap="round" stroke-linejoin="round" /><path d="M286 163H464l-8 80H293Z" fill="url(#glass)" stroke="#637283" stroke-width="2" stroke-linecap="round" stroke-linejoin="round" /><rect x="333" y="185" width="5" height="5" rx="0" fill="#87e5e5" /><rect x="343" y="185" width="5" height="5" rx="0" fill="#87e5e5" /><rect x="338" y="190" width="5" height="5" rx="0" fill="#87e5e5" /><rect x="328" y="195" width="5" height="5" rx="0" fill="#e8848e" /><rect x="333" y="195" width="5" height="5" rx="0" fill="#e8848e" /><rect x="338" y="195" width="5" height="5" rx="0" fill="#e8848e" /><rect x="343" y="195" width="5" height="5" rx="0" fill="#e8848e" /><rect x="348" y="195" width="5" height="5" rx="0" fill="#e8848e" /><rect x="323" y="200" width="5" height="5" rx="0" fill="#e8848e" /><rect x="328" y="200" width="5" height="5" rx="0" fill="#e8848e" /><rect x="338" y="200" width="5" height="5" rx="0" fill="#e8848e" /><rect x="348" y="200" width="5" height="5" rx="0" fill="#e8848e" /><rect x="353" y="200" width="5" height="5" rx="0" fill="#e8848e" /><rect x="323" y="205" width="5" height="5" rx="0" fill="#8fd5d0" /><rect x="328" y="205" width="5" height="5" rx="0" fill="#8fd5d0" /><rect x="333" y="205" width="5" height="5" rx="0" fill="#8fd5d0" /><rect x="338" y="205" width="5" height="5" rx="0" fill="#8fd5d0" /><rect x="343" y="205" width="5" height="5" rx="0" fill="#8fd5d0" /><rect x="348" y="205" width="5" height="5" rx="0" fill="#8fd5d0" /><rect x="353" y="205" width="5" height="5" rx="0" fill="#8fd5d0" /><rect x="323" y="210" width="5" height="5" rx="0" fill="#8fd5d0" /><rect x="353" y="210" width="5" height="5" rx="0" fill="#8fd5d0" /><rect x="328" y="215" width="5" height="5" rx="0" fill="#87e5e5" /><rect x="348" y="215" width="5" height="5" rx="0" fill="#87e5e5" /><rect x="419" y="192" width="4" height="4" rx="0" fill="#b2ded2" /><rect x="415" y="196" width="4" height="4" rx="0" fill="#b2ded2" /><rect x="419" y="196" width="4" height="4" rx="0" fill="#b2ded2" /><rect x="423" y="196" width="4" height="4" rx="0" fill="#b2ded2" /><rect x="415" y="200" width="4" height="4" rx="0" fill="#87e5e5" /><rect x="419" y="200" width="4" height="4" rx="0" fill="#87e5e5" /><rect x="423" y="200" width="4" height="4" rx="0" fill="#87e5e5" /><rect x="411" y="204" width="4" height="4" rx="0" fill="#87e5e5" /><rect x="415" y="204" width="4" height="4" rx="0" fill="#87e5e5" /><rect x="419" y="204" width="4" height="4" rx="0" fill="#87e5e5" /><rect x="423" y="204" width="4" height="4" rx="0" fill="#87e5e5" /><rect x="427" y="204" width="4" height="4" rx="0" fill="#87e5e5" /><rect x="407" y="208" width="4" height="4" rx="0" fill="#d4f3ee" /><rect x="411" y="208" width="4" height="4" rx="0" fill="#d4f3ee" /><rect x="415" y="208" width="4" height="4" rx="0" fill="#d4f3ee" /><rect x="419" y="208" width="4" height="4" rx="0" fill="#d4f3ee" /><rect x="423" y="208" width="4" height="4" rx="0" fill="#d4f3ee" /><rect x="427" y="208" width="4" height="4" rx="0" fill="#d4f3ee" /><rect x="431" y="208" width="4" height="4" rx="0" fill="#d4f3ee" /><rect x="407" y="212" width="4" height="4" rx="0" fill="#d4f3ee" /><rect x="411" y="212" width="4" height="4" rx="0" fill="#d4f3ee" /><rect x="419" y="212" width="4" height="4" rx="0" fill="#d4f3ee" /><rect x="427" y="212" width="4" height="4" rx="0" fill="#d4f3ee" /><rect x="431" y="212" width="4" height="4" rx="0" fill="#d4f3ee" /><rect x="415" y="216" width="4" height="4" rx="0" fill="#b2ded2" /><rect x="423" y="216" width="4" height="4" rx="0" fill="#b2ded2" /><rect x="306" y="177" width="3" height="3" rx="0" fill="#fff0d5" /><rect x="351" y="173" width="3" height="3" rx="0" fill="#fff0d5" /><rect x="437" y="176" width="3" height="3" rx="0" fill="#fff0d5" /><rect x="304" y="222" width="3" height="3" rx="0" fill="#fff0d5" /><rect x="452" y="224" width="3" height="3" rx="0" fill="#fff0d5" /><path d="M263 269H490l32 63H230Z" fill="#303a4b" stroke="#101926" stroke-width="3" stroke-linecap="round" stroke-linejoin="round" /><path d="M230 332H522v20H230Z" fill="#121d2b" /><ellipse cx="291" cy="303" rx="22" ry="9" fill="#141e2b" /><rect x="286" y="278" width="10" height="25" rx="3" fill="#687689" /><ellipse cx="291" cy="276" rx="14" ry="12" fill="#db4454" stroke="#461a2e" stroke-width="2" /><ellipse cx="370" cy="300" rx="10" ry="6" fill="#e84652" stroke="#131a2d" stroke-width="2" /><ellipse cx="401" cy="303" rx="10" ry="6" fill="#ffc64b" stroke="#131a2d" stroke-width="2" /><ellipse cx="433" cy="306" rx="10" ry="6" fill="#5dc599" stroke="#131a2d" stroke-width="2" /><ellipse cx="464" cy="309" rx="10" ry="6" fill="#69a9e5" stroke="#131a2d" stroke-width="2" /><rect x="263" y="376" width="123" height="96" rx="5" fill="#151c2c" stroke="#e5d9bb" stroke-width="3" /><rect x="280" y="390" width="31" height="41" rx="3" fill="#66717b" /><rect x="335" y="390" width="31" height="41" rx="3" fill="#66717b" /><rect x="286" y="399" width="18" height="6" rx="2" fill="#081524" /><rect x="342" y="399" width="18" height="6" rx="2" fill="#081524" /><rect x="286" y="440" width="74" height="17" rx="3" fill="#0b1322" stroke="#56667a" stroke-width="2" /><rect x="414" y="385" width="62" height="79" rx="5" fill="#171f2e" /><path d="M421 410L469 410" fill="none" stroke="#4d657c" stroke-width="2" stroke-linecap="round" stroke-linejoin="round" /><path d="M230 494H522v16H230Z" fill="#101a2b" /><rect x="255" y="511" width="36" height="12" rx="3" fill="#101a2b" /><rect x="459" y="511" width="36" height="12" rx="3" fill="#101a2b" /><path d="M537 204l20 42-13 2 24 57-24-18 4 31-22-32 12-1-20-37 12-4Z" fill="#87e5e5" /><path d="M545 354l37 8v113l-37-10Z" fill="#131e2c" opacity="0.65"/><path d="M258 349H487" fill="none" stroke="#87e5e5" stroke-width="3" stroke-linecap="round" stroke-linejoin="round" />
</svg>
