<?xml version="1.0" encoding="UTF-8"?>
<svg xmlns="http://www.w3.org/2000/svg" width="800" height="600" viewBox="0 0 800 600">
  <!-- The black housing, brushed-metal front, controller wells, and numbered hand controller identify Coleco's original 1982 hardware. -->
  <defs>
    <linearGradient id="black" x2="0.2" y2="1"><stop stop-color="#4a515d"/><stop offset="0.4" stop-color="#242b36"/><stop offset="1" stop-color="#0b111b"/></linearGradient>
    <linearGradient id="side" x2="0" y2="1"><stop stop-color="#303844"/><stop offset="1" stop-color="#080e16"/></linearGradient>
    <linearGradient id="silver" x2="0" y2="1"><stop stop-color="#f2f5f6"/><stop offset="0.38" stop-color="#d0d6da"/><stop offset="0.55" stop-color="#8c98a1"/><stop offset="1" stop-color="#c7cfd5"/></linearGradient>
    <linearGradient id="gold" x2="0.7" y2="1"><stop stop-color="#efdc9d"/><stop offset="0.38" stop-color="#c6ab6e"/><stop offset="0.6" stop-color="#9b804c"/><stop offset="1" stop-color="#dec98d"/></linearGradient>
    <linearGradient id="wood" x2="0" y2="1"><stop stop-color="#987052"/><stop offset="0.5" stop-color="#654936"/><stop offset="1" stop-color="#392a23"/></linearGradient>
    <linearGradient id="glass" x2="0.7" y2="1"><stop stop-color="#273d48"/><stop offset="0.4" stop-color="#071821"/><stop offset="1" stop-color="#01070e"/></linearGradient>
    <radialGradient id="disc"><stop stop-color="#e7d695"/><stop offset="0.6" stop-color="#bd9f5f"/><stop offset="1" stop-color="#8f713a"/></radialGradient>
  </defs>
  <ellipse cx="400" cy="521" rx="299" ry="20" fill="#162039" opacity="0.17"/>
  <g stroke-linejoin="round" stroke-linecap="round">
    <path d="M116 154H579l63 139H80Z" fill="url(#black)" stroke="#111821" stroke-width="4"/>
    <path d="M80 293H642v86l-32 32H114l-34-32Z" fill="url(#side)" stroke="#111821" stroke-width="4"/>
    <path d="M579 154l63 139v86l-32 32V303Z" fill="#0d131d"/>
    <path d="M119 165H281l-9 97H95Z" fill="#080e16" stroke="#4e5660" stroke-width="2"/>
    <rect x="146" y="173" width="104" height="76" rx="8" fill="#252e3a" stroke="#626b76" stroke-width="2"/>
    <ellipse cx="198" cy="192" rx="23" ry="10" fill="#0d121b"/>
    <rect x="191" y="174" width="14" height="19" rx="5" fill="#343e4a"/>
    <ellipse cx="198" cy="173" rx="22" ry="9" fill="#515b66"/>
    <g opacity="0.8"><rect x="164" y="211" width="19" height="5" rx="3" fill="#141b25" stroke="#747a7d" stroke-width="0.7"/><text x="173.5" y="217.5" font-family="Arial,sans-serif" font-size="5" text-anchor="middle" fill="#a6b0bc">1</text>
    <rect x="188" y="211" width="19" height="5" rx="3" fill="#141b25" stroke="#747a7d" stroke-width="0.7"/><text x="197.5" y="217.5" font-family="Arial,sans-serif" font-size="5" text-anchor="middle" fill="#a6b0bc">2</text>
    <rect x="212" y="211" width="19" height="5" rx="3" fill="#141b25" stroke="#747a7d" stroke-width="0.7"/><text x="221.5" y="217.5" font-family="Arial,sans-serif" font-size="5" text-anchor="middle" fill="#a6b0bc">3</text>
    <rect x="164" y="220" width="19" height="5" rx="3" fill="#141b25" stroke="#747a7d" stroke-width="0.7"/><text x="173.5" y="226.5" font-family="Arial,sans-serif" font-size="5" text-anchor="middle" fill="#a6b0bc">4</text>
    <rect x="188" y="220" width="19" height="5" rx="3" fill="#141b25" stroke="#747a7d" stroke-width="0.7"/><text x="197.5" y="226.5" font-family="Arial,sans-serif" font-size="5" text-anchor="middle" fill="#a6b0bc">5</text>
    <rect x="212" y="220" width="19" height="5" rx="3" fill="#141b25" stroke="#747a7d" stroke-width="0.7"/><text x="221.5" y="226.5" font-family="Arial,sans-serif" font-size="5" text-anchor="middle" fill="#a6b0bc">6</text>
    <rect x="164" y="229" width="19" height="5" rx="3" fill="#141b25" stroke="#747a7d" stroke-width="0.7"/><text x="173.5" y="235.5" font-family="Arial,sans-serif" font-size="5" text-anchor="middle" fill="#a6b0bc">7</text>
    <rect x="188" y="229" width="19" height="5" rx="3" fill="#141b25" stroke="#747a7d" stroke-width="0.7"/><text x="197.5" y="235.5" font-family="Arial,sans-serif" font-size="5" text-anchor="middle" fill="#a6b0bc">8</text>
    <rect x="212" y="229" width="19" height="5" rx="3" fill="#141b25" stroke="#747a7d" stroke-width="0.7"/><text x="221.5" y="235.5" font-family="Arial,sans-serif" font-size="5" text-anchor="middle" fill="#a6b0bc">9</text>
    <rect x="164" y="238" width="19" height="5" rx="3" fill="#141b25" stroke="#747a7d" stroke-width="0.7"/><text x="173.5" y="244.5" font-family="Arial,sans-serif" font-size="5" text-anchor="middle" fill="#a6b0bc">*</text>
    <rect x="188" y="238" width="19" height="5" rx="3" fill="#141b25" stroke="#747a7d" stroke-width="0.7"/><text x="197.5" y="244.5" font-family="Arial,sans-serif" font-size="5" text-anchor="middle" fill="#a6b0bc">0</text>
    <rect x="212" y="238" width="19" height="5" rx="3" fill="#141b25" stroke="#747a7d" stroke-width="0.7"/><text x="221.5" y="244.5" font-family="Arial,sans-serif" font-size="5" text-anchor="middle" fill="#a6b0bc">#</text></g>
    <path d="M312 164l-9 80" stroke="#090e16" stroke-width="4"/><path d="M314 164l-9 80" stroke="#4b5260" stroke-width="1"/>
    <path d="M322 164l-9 80" stroke="#090e16" stroke-width="4"/><path d="M324 164l-9 80" stroke="#4b5260" stroke-width="1"/>
    <path d="M332 164l-9 80" stroke="#090e16" stroke-width="4"/><path d="M334 164l-9 80" stroke="#4b5260" stroke-width="1"/>
    <path d="M342 164l-9 80" stroke="#090e16" stroke-width="4"/><path d="M344 164l-9 80" stroke="#4b5260" stroke-width="1"/>
    <path d="M352 164l-9 80" stroke="#090e16" stroke-width="4"/><path d="M354 164l-9 80" stroke="#4b5260" stroke-width="1"/>
    <path d="M362 164l-9 80" stroke="#090e16" stroke-width="4"/><path d="M364 164l-9 80" stroke="#4b5260" stroke-width="1"/>
    <path d="M372 164l-9 80" stroke="#090e16" stroke-width="4"/><path d="M374 164l-9 80" stroke="#4b5260" stroke-width="1"/>
    <path d="M382 164l-9 80" stroke="#090e16" stroke-width="4"/><path d="M384 164l-9 80" stroke="#4b5260" stroke-width="1"/>
    <path d="M392 164l-9 80" stroke="#090e16" stroke-width="4"/><path d="M394 164l-9 80" stroke="#4b5260" stroke-width="1"/>
    <path d="M402 164l-9 80" stroke="#090e16" stroke-width="4"/><path d="M404 164l-9 80" stroke="#4b5260" stroke-width="1"/>
    <path d="M412 164l-9 80" stroke="#090e16" stroke-width="4"/><path d="M414 164l-9 80" stroke="#4b5260" stroke-width="1"/>
    <path d="M422 164l-9 80" stroke="#090e16" stroke-width="4"/><path d="M424 164l-9 80" stroke="#4b5260" stroke-width="1"/>
    <path d="M432 164l-9 80" stroke="#090e16" stroke-width="4"/><path d="M434 164l-9 80" stroke="#4b5260" stroke-width="1"/>
    <path d="M442 164l-9 80" stroke="#090e16" stroke-width="4"/><path d="M444 164l-9 80" stroke="#4b5260" stroke-width="1"/>
    <path d="M452 164l-9 80" stroke="#090e16" stroke-width="4"/><path d="M454 164l-9 80" stroke="#4b5260" stroke-width="1"/>
    <path d="M462 164l-9 80" stroke="#090e16" stroke-width="4"/><path d="M464 164l-9 80" stroke="#4b5260" stroke-width="1"/>
    <path d="M472 164l-9 80" stroke="#090e16" stroke-width="4"/><path d="M474 164l-9 80" stroke="#4b5260" stroke-width="1"/>
    <path d="M482 164l-9 80" stroke="#090e16" stroke-width="4"/><path d="M484 164l-9 80" stroke="#4b5260" stroke-width="1"/>
    <path d="M492 164l-9 80" stroke="#090e16" stroke-width="4"/><path d="M494 164l-9 80" stroke="#4b5260" stroke-width="1"/>
    <path d="M502 164l-9 80" stroke="#090e16" stroke-width="4"/><path d="M504 164l-9 80" stroke="#4b5260" stroke-width="1"/>
    <path d="M522 167h49l22 53H518Z" fill="#0b111a" stroke="#75808c" stroke-width="2"/>
    <path d="M531 174h31l8 18h-40Z" fill="#6d7684"/>
    <path d="M532 177h28l3 8h-31Z" fill="#070c13"/>
    <path d="M101 307H619v40H101Z" fill="url(#silver)" stroke="#909da7" stroke-width="1"/>
    <text x="124" y="333" font-family="Arial,sans-serif" font-weight="bold" font-size="23" letter-spacing="-1" fill="#af263c">ColecoVision</text>
    <text x="399" y="332" font-family="Arial,sans-serif" font-size="10" letter-spacing="1.4" fill="#3a424e">VIDEO GAME SYSTEM</text>
    <rect x="486" y="363" width="92" height="11" rx="2" fill="#080e16" stroke="#69747e" stroke-width="1.5"/>
    <rect x="149" y="356" width="30" height="11" rx="2" fill="#080d13"/><rect x="155" y="357" width="12" height="8" rx="1" fill="#c0c9d0"/>
    <rect x="205" y="356" width="29" height="11" rx="2" fill="#080d13"/><rect x="211" y="357" width="11" height="8" rx="1" fill="#c0c9d0"/>
    <text x="148" y="388" font-family="Arial,sans-serif" font-size="8" fill="#acb6c3">POWER</text>
    <text x="205" y="388" font-family="Arial,sans-serif" font-size="8" fill="#acb6c3">RESET</text>
    <path d="M503 379C539 409 582 369 647 391C695 408 699 450 654 465" fill="none" stroke="#0c131d" stroke-width="7"/>
    <path d="M506 379C540 408 583 370 647 393" fill="none" stroke="#4e5867" stroke-width="1.5"/>
    <g transform="translate(534 343) rotate(12 58 78)">
      <path d="M3 6Q3-4 14-4h97q12 0 12 12v142q0 18-16 18H18q-17 0-17-16Z" fill="url(#black)" stroke="#10151f" stroke-width="4"/>
      <path d="M11 5h103v47H11Z" fill="#333e4d"/>
      <ellipse cx="63" cy="25" rx="32" ry="20" fill="#090f19" stroke="#607080" stroke-width="1.5"/>
      <rect x="56" y="1" width="14" height="27" rx="5" fill="#161d28"/>
      <ellipse cx="63" cy="0" rx="29" ry="12" fill="#505f6c" stroke="#1b2632" stroke-width="2"/>
      <ellipse cx="59" cy="-3" rx="18" ry="4" fill="#6f7b87"/>
      <rect x="12" y="55" width="99" height="93" rx="6" fill="#111a26" stroke="#708090" stroke-width="1"/>
      <rect x="21" y="64" width="26" height="17" rx="3" fill="#323d4c" stroke="#747a7d" stroke-width="0.7"/><text x="34" y="76.5" font-family="Arial,sans-serif" font-size="11" text-anchor="middle" fill="#e2e6ed">1</text>
    <rect x="52" y="64" width="26" height="17" rx="3" fill="#323d4c" stroke="#747a7d" stroke-width="0.7"/><text x="65" y="76.5" font-family="Arial,sans-serif" font-size="11" text-anchor="middle" fill="#e2e6ed">2</text>
    <rect x="83" y="64" width="26" height="17" rx="3" fill="#323d4c" stroke="#747a7d" stroke-width="0.7"/><text x="96" y="76.5" font-family="Arial,sans-serif" font-size="11" text-anchor="middle" fill="#e2e6ed">3</text>
    <rect x="21" y="85" width="26" height="17" rx="3" fill="#323d4c" stroke="#747a7d" stroke-width="0.7"/><text x="34" y="97.5" font-family="Arial,sans-serif" font-size="11" text-anchor="middle" fill="#e2e6ed">4</text>
    <rect x="52" y="85" width="26" height="17" rx="3" fill="#323d4c" stroke="#747a7d" stroke-width="0.7"/><text x="65" y="97.5" font-family="Arial,sans-serif" font-size="11" text-anchor="middle" fill="#e2e6ed">5</text>
    <rect x="83" y="85" width="26" height="17" rx="3" fill="#323d4c" stroke="#747a7d" stroke-width="0.7"/><text x="96" y="97.5" font-family="Arial,sans-serif" font-size="11" text-anchor="middle" fill="#e2e6ed">6</text>
    <rect x="21" y="106" width="26" height="17" rx="3" fill="#323d4c" stroke="#747a7d" stroke-width="0.7"/><text x="34" y="118.5" font-family="Arial,sans-serif" font-size="11" text-anchor="middle" fill="#e2e6ed">7</text>
    <rect x="52" y="106" width="26" height="17" rx="3" fill="#323d4c" stroke="#747a7d" stroke-width="0.7"/><text x="65" y="118.5" font-family="Arial,sans-serif" font-size="11" text-anchor="middle" fill="#e2e6ed">8</text>
    <rect x="83" y="106" width="26" height="17" rx="3" fill="#323d4c" stroke="#747a7d" stroke-width="0.7"/><text x="96" y="118.5" font-family="Arial,sans-serif" font-size="11" text-anchor="middle" fill="#e2e6ed">9</text>
    <rect x="21" y="127" width="26" height="17" rx="3" fill="#323d4c" stroke="#747a7d" stroke-width="0.7"/><text x="34" y="139.5" font-family="Arial,sans-serif" font-size="11" text-anchor="middle" fill="#e2e6ed">*</text>
    <rect x="52" y="127" width="26" height="17" rx="3" fill="#323d4c" stroke="#747a7d" stroke-width="0.7"/><text x="65" y="139.5" font-family="Arial,sans-serif" font-size="11" text-anchor="middle" fill="#e2e6ed">0</text>
    <rect x="83" y="127" width="26" height="17" rx="3" fill="#323d4c" stroke="#747a7d" stroke-width="0.7"/><text x="96" y="139.5" font-family="Arial,sans-serif" font-size="11" text-anchor="middle" fill="#e2e6ed">#</text>
      <rect x="-6" y="45" width="9" height="45" rx="3" fill="#252e3a"/><rect x="123" y="45" width="9" height="45" rx="3" fill="#202a36"/>
    </g>
  </g>
</svg>
