<?xml version="1.0" encoding="UTF-8"?>
<svg xmlns="http://www.w3.org/2000/svg" width="800" height="600" viewBox="0 0 800 600">
  <!-- This original illustration keeps its own material colors so hardware remains recognizable on every palette. -->
<defs>
<linearGradient id="dark" x1="0" y1="0" x2="0.8" y2="1"><stop stop-color="#4a5362"/><stop offset="0.38" stop-color="#262d3b"/><stop offset="1" stop-color="#10141d"/></linearGradient>
<linearGradient id="black" x1="0" y1="0" x2="0" y2="1"><stop stop-color="#414751"/><stop offset="0.42" stop-color="#151b25"/><stop offset="1" stop-color="#050b12"/></linearGradient>
<linearGradient id="rubber" x1="0" y1="0" x2="0" y2="1"><stop stop-color="#545b65"/><stop offset="0.45" stop-color="#303741"/><stop offset="1" stop-color="#111822"/></linearGradient>
<linearGradient id="silver" x1="0" y1="0" x2="0" y2="1"><stop stop-color="#f6f8fa"/><stop offset="0.42" stop-color="#bfc7d1"/><stop offset="0.5" stop-color="#8b95a4"/><stop offset="1" stop-color="#dbe2e9"/></linearGradient>
<linearGradient id="cream" x1="0" y1="0" x2="0.3" y2="1"><stop stop-color="#eee6d2"/><stop offset="0.5" stop-color="#cfc5ad"/><stop offset="1" stop-color="#a19b8c"/></linearGradient>
<linearGradient id="wood" x1="0" y1="0" x2="0" y2="1"><stop stop-color="#b8763e"/><stop offset="0.45" stop-color="#80552f"/><stop offset="1" stop-color="#55341f"/></linearGradient>
<linearGradient id="gold" x1="0" y1="0" x2="0.9" y2="1"><stop stop-color="#fff0a4"/><stop offset="0.35" stop-color="#ffc841"/><stop offset="0.7" stop-color="#d88a16"/><stop offset="1" stop-color="#ffe380"/></linearGradient>
<linearGradient id="glass" x1="0" y1="0" x2="0.7" y2="1"><stop stop-color="#324963"/><stop offset="0.5" stop-color="#0c1525"/><stop offset="1" stop-color="#03101d"/></linearGradient>
<linearGradient id="red" x1="0" y1="0" x2="0.8" y2="1"><stop stop-color="#ff665b"/><stop offset="0.55" stop-color="#d63136"/><stop offset="1" stop-color="#8f1628"/></linearGradient>
<linearGradient id="blue" x1="0" y1="0" x2="0.8" y2="1"><stop stop-color="#72c1ff"/><stop offset="0.55" stop-color="#258ad2"/><stop offset="1" stop-color="#176087"/></linearGradient>
<linearGradient id="purple" x1="0" y1="0" x2="0.8" y2="1"><stop stop-color="#b286ed"/><stop offset="0.55" stop-color="#7551ac"/><stop offset="1" stop-color="#452a6e"/></linearGradient>
</defs>
<ellipse cx="405" cy="534" rx="301" ry="18" fill="#162039" opacity="0.17"/><path d="M166 192H581l41 53v238H166Z" fill="#27536b" stroke="#112b44" stroke-width="4" stroke-linecap="round" stroke-linejoin="round" /><path d="M166 192H581v234H166Z" fill="url(#blue)" stroke="#163b55" stroke-width="3" stroke-linecap="round" stroke-linejoin="round" /><rect x="180" y="206" width="386" height="193" rx="8" fill="#2d566a" stroke="#7ab1c8" stroke-width="3" /><path d="M211 400h322v30H211Z" fill="#162f45" /><rect x="211" y="240" width="49" height="153" rx="5" fill="#de6771" stroke="#142f45" stroke-width="2" /><rect x="218" y="250" width="35" height="49" rx="3" fill="#f7dfad" /><rect x="221" y="315" width="29" height="9" rx="2" fill="#173d52" /><rect x="222" y="360" width="28" height="10" rx="2" fill="#e9d8b4" /><rect x="273" y="240" width="49" height="153" rx="5" fill="#e5ae57" stroke="#142f45" stroke-width="2" /><rect x="280" y="250" width="35" height="49" rx="3" fill="#f7dfad" /><rect x="283" y="315" width="29" height="9" rx="2" fill="#173d52" /><rect x="284" y="360" width="28" height="10" rx="2" fill="#e9d8b4" /><rect x="335" y="240" width="49" height="153" rx="5" fill="#aabd6c" stroke="#142f45" stroke-width="2" /><rect x="342" y="250" width="35" height="49" rx="3" fill="#f7dfad" /><rect x="345" y="315" width="29" height="9" rx="2" fill="#173d52" /><rect x="346" y="360" width="28" height="10" rx="2" fill="#e9d8b4" /><rect x="397" y="240" width="49" height="153" rx="5" fill="#67b4b6" stroke="#142f45" stroke-width="2" /><rect x="404" y="250" width="35" height="49" rx="3" fill="#f7dfad" /><rect x="407" y="315" width="29" height="9" rx="2" fill="#173d52" /><rect x="408" y="360" width="28" height="10" rx="2" fill="#e9d8b4" /><rect x="459" y="240" width="49" height="153" rx="5" fill="#a287c3" stroke="#142f45" stroke-width="2" /><rect x="466" y="250" width="35" height="49" rx="3" fill="#f7dfad" /><rect x="469" y="315" width="29" height="9" rx="2" fill="#173d52" /><rect x="470" y="360" width="28" height="10" rx="2" fill="#e9d8b4" /><path d="M140 406l26-19 447 33 35 18-35 83H165Z" fill="#297d98" stroke="#173c55" stroke-width="4" stroke-linecap="round" stroke-linejoin="round" /><path d="M165 431H612v90H165Z" fill="#4a9fba" stroke="#173c55" stroke-width="3" stroke-linecap="round" stroke-linejoin="round" /><path d="M315 429v-20h126v20" fill="none" stroke="#233b51" stroke-width="15" stroke-linecap="round" stroke-linejoin="round" /><path d="M315 428v-17h126v17" fill="none" stroke="#a9c4ce" stroke-width="6" stroke-linecap="round" stroke-linejoin="round" /><rect x="211" y="442" width="29" height="43" rx="4" fill="url(#silver)" stroke="#36576b" stroke-width="2" /><rect x="537" y="442" width="29" height="43" rx="4" fill="url(#silver)" stroke="#36576b" stroke-width="2" /><rect x="182" y="499" width="65" height="14" rx="3" fill="#173d55" /><rect x="535" y="499" width="65" height="14" rx="3" fill="#173d55" /><g transform="translate(111 278) rotate(-14)"><rect x="0" y="0" width="106" height="156" rx="10" fill="url(#cream)" stroke="#616865" stroke-width="3" /><rect x="12" y="15" width="82" height="77" rx="6" fill="#4f6e62" /><rect x="23" y="26" width="60" height="50" rx="3" fill="#bdd292" /><path d="M25.666666666666668 102h8.666666666666666v8.666666666666666h8.666666666666666v8.666666666666666h-8.666666666666666v8.666666666666666h-8.666666666666666v-8.666666666666666h-8.666666666666666v-8.666666666666666h8.666666666666666Z" fill="#253c4e" stroke="#11151e" stroke-width="2" stroke-linecap="round" stroke-linejoin="round" /><ellipse cx="78" cy="109" rx="8" ry="8" fill="#cf5775" /><ellipse cx="64" cy="123" rx="8" ry="8" fill="#cf5775" /><rect x="43" y="141" width="14" height="4" rx="2" fill="#73887f" /></g><ellipse cx="650" cy="387" rx="72" ry="72" fill="url(#silver)" stroke="#587f93" stroke-width="3" /><ellipse cx="650" cy="387" rx="18" ry="18" fill="#6b9cae" /><ellipse cx="650" cy="387" rx="8" ry="8" fill="#e6eef3" /><path d="M609 348l28 27 20-25M604 423l36-21 32 12" fill="none" stroke="#edf4f8" stroke-width="4" stroke-linecap="round" stroke-linejoin="round" />
</svg>
