<?xml version="1.0" encoding="UTF-8"?>
<svg xmlns="http://www.w3.org/2000/svg" width="800" height="600" viewBox="0 0 800 600">
  <!-- This original illustration keeps its own material colors so hardware remains recognizable on every palette. -->
<defs>
<linearGradient id="dark" x1="0" y1="0" x2="0.8" y2="1"><stop stop-color="#4a5362"/><stop offset="0.38" stop-color="#262d3b"/><stop offset="1" stop-color="#10141d"/></linearGradient>
<linearGradient id="black" x1="0" y1="0" x2="0" y2="1"><stop stop-color="#414751"/><stop offset="0.42" stop-color="#151b25"/><stop offset="1" stop-color="#050b12"/></linearGradient>
<linearGradient id="rubber" x1="0" y1="0" x2="0" y2="1"><stop stop-color="#545b65"/><stop offset="0.45" stop-color="#303741"/><stop offset="1" stop-color="#111822"/></linearGradient>
<linearGradient id="silver" x1="0" y1="0" x2="0" y2="1"><stop stop-color="#f6f8fa"/><stop offset="0.42" stop-color="#bfc7d1"/><stop offset="0.5" stop-color="#8b95a4"/><stop offset="1" stop-color="#dbe2e9"/></linearGradient>
<linearGradient id="cream" x1="0" y1="0" x2="0.3" y2="1"><stop stop-color="#eee6d2"/><stop offset="0.5" stop-color="#cfc5ad"/><stop offset="1" stop-color="#a19b8c"/></linearGradient>
<linearGradient id="wood" x1="0" y1="0" x2="0" y2="1"><stop stop-color="#b8763e"/><stop offset="0.45" stop-color="#80552f"/><stop offset="1" stop-color="#55341f"/></linearGradient>
<linearGradient id="gold" x1="0" y1="0" x2="0.9" y2="1"><stop stop-color="#fff0a4"/><stop offset="0.35" stop-color="#ffc841"/><stop offset="0.7" stop-color="#d88a16"/><stop offset="1" stop-color="#ffe380"/></linearGradient>
<linearGradient id="glass" x1="0" y1="0" x2="0.7" y2="1"><stop stop-color="#324963"/><stop offset="0.5" stop-color="#0c1525"/><stop offset="1" stop-color="#03101d"/></linearGradient>
<linearGradient id="red" x1="0" y1="0" x2="0.8" y2="1"><stop stop-color="#ff665b"/><stop offset="0.55" stop-color="#d63136"/><stop offset="1" stop-color="#8f1628"/></linearGradient>
<linearGradient id="blue" x1="0" y1="0" x2="0.8" y2="1"><stop stop-color="#72c1ff"/><stop offset="0.55" stop-color="#258ad2"/><stop offset="1" stop-color="#176087"/></linearGradient>
<linearGradient id="purple" x1="0" y1="0" x2="0.8" y2="1"><stop stop-color="#b286ed"/><stop offset="0.55" stop-color="#7551ac"/><stop offset="1" stop-color="#452a6e"/></linearGradient>
</defs>
<ellipse cx="405" cy="506" rx="285" ry="19" fill="#162039" opacity="0.17"/><path d="M154 163H543l55 137H100Z" fill="url(#black)" stroke="#08111a" stroke-width="4" stroke-linecap="round" stroke-linejoin="round" /><path d="M100 300H598v91H100Z" fill="#18212a" stroke="#08111a" stroke-width="4" stroke-linecap="round" stroke-linejoin="round" /><path d="M166 171L344 244 532 171l18 24-145 73 169 28-20 24-212-42-206 41-17-24 165-31-142-69Z" fill="#2b3542" stroke="#424e5b" stroke-width="2" stroke-linecap="round" stroke-linejoin="round" /><ellipse cx="348" cy="250" rx="57" ry="34" fill="#1b341b" stroke="#0c1810" stroke-width="3" /><ellipse cx="348" cy="245" rx="49" ry="27" fill="#77bb31" stroke="#203c12" stroke-width="2" /><path d="M317 233l17 1 13 12 13-12 18-1-20 16 21 13-19-1-13-9-13 9-18 1 21-13Z" fill="#244816" /><rect x="123" y="329" width="349" height="20" rx="3" fill="#070e15" stroke="#535e6c" stroke-width="2" /><rect x="133" y="335" width="323" height="3" rx="1" fill="#465663" /><ellipse cx="494" cy="340" rx="11" ry="11" fill="#5d8f2a" stroke="#9ee34b" stroke-width="2" /><rect x="121" y="366" width="41" height="12" rx="5" fill="#050c13" /><rect x="178" y="366" width="41" height="12" rx="5" fill="#050c13" /><rect x="501" y="366" width="32" height="12" rx="5" fill="#050c13" /><rect x="548" y="366" width="32" height="12" rx="5" fill="#050c13" /><path d="M198 391C205 456 269 404 370 450" fill="none" stroke="#111927" stroke-width="6" stroke-linecap="round" stroke-linejoin="round" /><g transform="translate(417 441) scale(0.96)"><path d="M-132-65c-37 0-59 32-59 68l-4 54c0 28 30 39 53 16l39-31H102l42 31c23 23 53 12 53-16l-4-54c0-36-23-68-60-68Z" fill="url(#black)" stroke="#080f18" stroke-width="4" stroke-linecap="round" stroke-linejoin="round" /><ellipse cx="-104" cy="-28" rx="29" ry="29" fill="#161921" /><ellipse cx="-104" cy="-28" rx="25" ry="25" fill="url(#rubber)" stroke="#05070b" stroke-width="2" /><ellipse cx="-104" cy="-32" rx="21" ry="6" fill="#545b69" opacity="0.5"/><ellipse cx="-104" cy="-28" rx="18" ry="18" fill="none" stroke="#202632" stroke-width="1" /><ellipse cx="47" cy="38" rx="27" ry="27" fill="#161921" /><ellipse cx="47" cy="38" rx="23" ry="23" fill="url(#rubber)" stroke="#05070b" stroke-width="2" /><ellipse cx="47" cy="34" rx="19" ry="6" fill="#545b69" opacity="0.5"/><ellipse cx="47" cy="38" rx="16" ry="16" fill="none" stroke="#202632" stroke-width="1" /><path d="M-55.0 4h16.0v16.0h16.0v16.0h-16.0v16.0h-16.0v-16.0h-16.0v-16.0h16.0Z" fill="#192633" stroke="#11151e" stroke-width="2" stroke-linecap="round" stroke-linejoin="round" /><ellipse cx="0" cy="-36" rx="34" ry="25" fill="#274827" stroke="#0c1716" stroke-width="3" /><ellipse cx="0" cy="-38" rx="25" ry="17" fill="#69ae2b" /><path d="M-14-46l14 9 14-9M-14-29l14-9 14 9" fill="none" stroke="#214a19" stroke-width="3" stroke-linecap="round" stroke-linejoin="round" /><ellipse cx="122" cy="-37" rx="11" ry="11" fill="#55bd83" stroke="#0d131d" stroke-width="1" /><ellipse cx="137" cy="-22" rx="11" ry="11" fill="#d65058" stroke="#0d131d" stroke-width="1" /><ellipse cx="122" cy="-7" rx="11" ry="11" fill="#65aade" stroke="#0d131d" stroke-width="1" /><ellipse cx="107" cy="-22" rx="11" ry="11" fill="#be6fa4" stroke="#0d131d" stroke-width="1" /><ellipse cx="86" cy="-54" rx="7" ry="7" fill="#171f2b" /><ellipse cx="108" cy="-63" rx="7" ry="7" fill="#ecede3" /><ellipse cx="-28" cy="-2" rx="10" ry="5" fill="#68767c" /><ellipse cx="28" cy="-2" rx="10" ry="5" fill="#68767c" /></g>
</svg>
